<?xml version="1.0" standalone="no"?>
<!DOCTYPE svg PUBLIC "-//W3C//DTD SVG 1.1//EN" "http://www.w3.org/Graphics/SVG/1.1/DTD/svg11.dtd">
<svg xmlns="http://www.w3.org/2000/svg" id="Layer_2" viewBox="0 0 1000 230.4497" width="1000" height="230.44970703125"><g id="Components"><g id="a9877c36-0954-4c1d-9b37-b5269f2acbda_10"><path d="M321.1858,227.4228h-8.6069c-2.8541-8.5325-4.9358-14.1813-6.2434-16.9463-1.6652-3.4784-3.5533-5.7229-5.6636-6.7339-1.6652-.8027-4.6531-1.2041-8.9637-1.2041-2.5276,0-4.7717.0299-6.7339.0892,0,9.6031.1784,17.868.5351,24.795h-8.2947c.446-9.2161.6689-19.3839.6689-30.5033,0-10.4648-.223-19.6514-.6689-27.56h6.288c1.3379,0,3.0325-.0446,5.0839-.1338,2.0514-.0892,4.3998-.1338,7.0461-.1338,13.0219,0,19.5328,4.4894,19.5328,13.4678,0,7.4626-3.6568,12.7097-10.9705,15.7422v.446c3.2698.9811,5.9161,3.2555,7.938,6.8231,1.6946,2.9732,4.712,10.2569,9.0529,21.8518ZM307.5396,185.5923c0-7.0755-4.7868-10.6137-14.3597-10.6137-3.4195,0-6.288.1935-8.6069.5797.2078,5.1731.3122,12.2044.3122,21.0936,1.7838.0597,3.4928.0892,5.1285.0892,11.684,0,17.526-3.7162,17.526-11.1489Z" style="fill:#90ac84;"/><path d="M368.7245,220.6889l-.2676,6.7339h-35.9439c.4157-9.2161.6243-19.3839.6243-30.5033,0-10.4648-.2086-19.6514-.6243-27.56h33.7141l-.3568,6.6447c-8.1761-.3568-16.8427-.5351-25.9991-.5351.1784,4.6085.2676,10.8367.2676,18.6855,7.9077,0,14.9538-.1784,21.1382-.5351v6.6447c-6.6001-.2676-13.6462-.4014-21.1382-.4014,0,7.6409.1338,14.8057.4014,21.495,9.8699,0,19.2652-.223,28.1843-.6689Z" style="fill:#90ac84;"/><path d="M424.8255,227.4228h-6.2434c0-.5053-4.876-7.6258-14.6273-21.3612-10.198-14.4191-16.0098-23.5165-17.4368-27.2924h-.446c.5351,7.1651.8027,13.3046.8027,18.4179,0,9.9894.223,20.0679.6689,30.2357h-7.492c.5049-9.6621.7581-19.8298.7581-30.5033,0-10.4947-.2532-19.6813-.7581-27.56h8.5623c0,.8326,4.489,7.6111,13.4678,20.3355,9.3945,13.3786,14.746,22.0899,16.0543,26.1329h.446c-.5057-7.2539-.7581-13.4081-.7581-18.4625,0-10.9999-.2086-20.3355-.6243-28.0059h7.6258c-.5057,7.8787-.7581,17.0653-.7581,27.56,0,10.6734.2524,20.8412.7581,30.5033Z" style="fill:#90ac84;"/><path d="M492.1646,197.4992c0,9.6031-2.8095,17.2807-8.4285,23.0335-5.619,5.7528-12.1156,8.6292-19.4882,8.6292-7.0763,0-13.2823-2.6383-18.6186-7.9157-5.3371-5.277-8.0049-12.4047-8.0049-21.3835,0-9.7218,2.8095-17.4292,8.4285-23.1227,5.619-5.6931,12.1148-8.54,19.4882-8.54,7.0755,0,13.2815,2.6387,18.6186,7.9157,5.3363,5.2774,8.0049,12.4051,8.0049,21.3835ZM484.2266,198.5249c0-7.6704-2.0148-13.6088-6.0427-17.8159-4.0287-4.2067-8.6738-6.3103-13.9361-6.3103-4.876,0-9.2169,2.215-13.0219,6.6447-3.8057,4.4301-5.7082,10.3461-5.7082,17.749,0,7.7003,2.0291,13.6538,6.0873,17.8605,4.0582,4.2071,8.7033,6.3103,13.9361,6.3103,4.8752,0,9.209-2.2445,12.9996-6.7339,3.7906-4.489,5.6859-10.3907,5.6859-17.7044Z" style="fill:#90ac84;"/><path d="M546.6602,169.3595c0,2.4679-3.754,12.13-11.2603,28.987-7.5072,16.8571-11.2603,26.5494-11.2603,29.0762h-5.7974c0-2.2891-3.5453-11.907-10.636-28.8532-7.0907-16.9463-10.636-26.6828-10.636-29.21h8.4731c0,2.319,2.7052,10.5767,8.1164,24.7728,5.4104,14.1965,8.1164,22.32,8.1164,24.3714h.446c0-2.319,2.7347-10.413,8.2056-24.2822,5.4701-13.8692,8.2056-22.1564,8.2056-24.8619h8.0272Z" style="fill:#90ac84;"/><path d="M601.1112,227.4228h-9.4096c0-1.9917-1.873-8.2502-5.619-18.7747h-25.7316c-3.6871,10.376-5.5298,16.6341-5.5298,18.7747h-9.0083c0-1.0998,3.8352-10.6061,11.5056-28.5188,7.6704-17.9122,11.5056-27.7606,11.5056-29.5445h10.3461c0,1.7544,3.6568,11.461,10.9705,29.1208s10.9705,27.3075,10.9705,28.9424ZM584.0312,202.8061c-6.9871-17.4515-10.4799-26.7274-10.4799-27.8275h-.4905c0,.9218-3.6122,10.1976-10.8367,27.8275h21.8072Z" style="fill:#90ac84;"/><path d="M644.9485,169.3595l-.223,6.288c-5.8866-.297-11.9667-.446-18.2395-.446-.0597,5.7082-.0892,12.9478-.0892,21.718,0,9.6923.1481,19.8601.446,30.5033h-8.161c.3568-10.1379.5351-20.3056.5351-30.5033,0-8.6515-.0892-15.8907-.2676-21.718-4.4006,0-10.5842.1784-18.5517.5351l.223-6.3771h44.3278Z" style="fill:#90ac84;"/><path d="M662.7867,227.4228h-8.4731c.446-9.6326.6689-19.8004.6689-30.5033,0-10.5245-.223-19.7112-.6689-27.56h8.4731c-.4165,8.1164-.6243,17.303-.6243,27.56,0,10.7626.2078,20.9304.6243,30.5033Z" style="fill:#90ac84;"/><path d="M730.1257,197.4992c0,9.6031-2.8095,17.2807-8.4285,23.0335-5.619,5.7528-12.1156,8.6292-19.4882,8.6292-7.0763,0-13.2823-2.6383-18.6186-7.9157-5.3371-5.277-8.0049-12.4047-8.0049-21.3835,0-9.7218,2.8095-17.4292,8.4285-23.1227,5.619-5.6931,12.1148-8.54,19.4882-8.54,7.0755,0,13.2815,2.6387,18.6186,7.9157,5.3363,5.2774,8.0049,12.4051,8.0049,21.3835ZM722.1878,198.5249c0-7.6704-2.0148-13.6088-6.0427-17.8159-4.0287-4.2067-8.6738-6.3103-13.9361-6.3103-4.876,0-9.2169,2.215-13.0219,6.6447-3.8057,4.4301-5.7082,10.3461-5.7082,17.749,0,7.7003,2.0291,13.6538,6.0873,17.8605,4.0582,4.2071,8.7033,6.3103,13.9361,6.3103,4.8752,0,9.209-2.2445,12.9996-6.7339,3.7906-4.489,5.6859-10.3907,5.6859-17.7044Z" style="fill:#90ac84;"/><path d="M787.6984,227.4228h-6.2434c0-.5053-4.876-7.6258-14.6273-21.3612-10.198-14.4191-16.0098-23.5165-17.4368-27.2924h-.446c.5351,7.1651.8027,13.3046.8027,18.4179,0,9.9894.223,20.0679.6689,30.2357h-7.492c.5049-9.6621.7581-19.8298.7581-30.5033,0-10.4947-.2532-19.6813-.7581-27.56h8.5623c0,.8326,4.489,7.6111,13.4678,20.3355,9.3945,13.3786,14.746,22.0899,16.0543,26.1329h.446c-.5057-7.2539-.7581-13.4081-.7581-18.4625,0-10.9999-.2086-20.3355-.6243-28.0059h7.6258c-.5057,7.8787-.7581,17.0653-.7581,27.56,0,10.6734.2524,20.8412.7581,30.5033Z" style="fill:#90ac84;"/><path d="M838.3588,212.3941c0,11.0003-7.6561,16.5003-22.9666,16.5003-5.5896,0-10.5548-.6395-14.8949-1.9176l1.5608-7.0015c4.9947,1.7245,9.7361,2.5865,14.2259,2.5865,10.108,0,15.1624-2.8541,15.1624-8.5623,0-2.8836-1.3084-5.3514-3.9244-7.4028-1.7544-1.3673-5.2033-3.1957-10.3461-5.4852-5.4112-2.4082-9.2018-4.6228-11.3718-6.6447-3.003-2.7944-4.5041-6.3027-4.5041-10.5245,0-4.3998,1.5306-7.9826,4.5933-10.7475,3.4187-3.0918,8.2502-4.6379,14.4935-4.6379,7.0755,0,11.9213.4611,14.5381,1.3825l-1.0703,7.0907c-4.5193-1.4271-9.3204-2.1406-14.4043-2.1406-7.6409,0-11.461,2.5571-11.461,7.6704,0,2.4679,1.0998,4.534,3.3001,6.1988,1.4271,1.0408,4.5782,2.6164,9.4542,4.7271,5.5593,2.4082,9.5729,4.6976,12.0408,6.8677,3.7158,3.2706,5.5744,7.2842,5.5744,12.0408Z" style="fill:#90ac84;"/><path d="M330.2149,128.6563c.4032.3593.6046,1.075.6046,2.1496v3.2243c0,1.075-.2014,1.7929-.6046,2.1496-.4032.3589-1.0979.5375-2.0825.5375h-48.2309c-.9865,0-1.6793-.1785-2.0825-.5375-.4029-.3568-.6043-1.0747-.6043-2.1496V45.3606c0-1.0747.2014-1.7904.6043-2.1493.4032-.3571,1.096-.5375,2.0825-.5375h48.0966c.9846,0,1.6793.1804,2.0825.5375.4029.3589.6046,1.0747.6046,2.1493v3.2246c0,1.0747-.2017,1.7925-.6046,2.1493-.4032.3589-1.0979.5375-2.0825.5375h-40.7074c-.8964,0-1.3436.4493-1.3436,1.3436v31.1688c0,.8961.4471,1.3432,1.3436,1.3432h36.1395c.9846,0,1.6793.1807,2.0825.5375.4029.3589.6046,1.075.6046,2.1496v3.09c0,1.0747-.2017,1.7929-.6046,2.1496-.4032.3589-1.0979.5375-2.0825.5375h-36.1395c-.8964,0-1.3436.449-1.3436,1.3432v31.8406c0,.8964.4471,1.3436,1.3436,1.3436h40.8417c.9846,0,1.6793.1804,2.0825.5372Z" style="fill:#d2e4a7;"/><path d="M361.4493,128.1192h42.1855c.984,0,1.6784.1804,2.0819.5372.4035.3593.604,1.075.604,2.1496v3.2243c0,1.075-.2005,1.7929-.604,2.1496-.4035.3589-1.0979.5375-2.0819.5375h-49.5748c-.9865,0-1.6796-.1785-2.0825-.5375-.4029-.3568-.6046-1.0747-.6046-2.1496V45.3606c0-1.0747.2017-1.7904.6046-2.1493.4029-.3571,1.096-.5375,2.0825-.5375h3.3586c.9846,0,1.6796.1804,2.0825.5375.4029.3589.6046,1.0747.6046,2.1493v81.415c0,.8964.4468,1.3436,1.3436,1.3436Z" style="fill:#d2e4a7;"/><path d="M433.0562,134.0302c0,1.075-.2017,1.7929-.6046,2.1496-.4029.3589-1.0979.5375-2.0825.5375h-3.3586c-.9865,0-1.6796-.1785-2.0825-.5375-.4029-.3568-.6046-1.0747-.6046-2.1496V45.3606c0-1.3432.1789-2.3511.5378-3.0228.3565-.6718.984-1.0075,1.8807-1.0075.716,0,1.3875.2686,2.015.8061.6257.5375,1.5663,1.5682,2.8214,3.09l36.8113,46.3502,36.2741-46.3502c1.2532-1.5218,2.1939-2.5525,2.8214-3.09.6257-.5375,1.2971-.8061,2.015-.8061.8943,0,1.5218.3357,1.8807,1.0075.3571.6718.5378,1.6796.5378,3.0228v88.6697c0,1.075-.2017,1.7929-.6046,2.1496-.4035.3589-1.0979.5375-2.0825.5375h-3.3586c-.9871,0-1.6796-.1785-2.0825-.5375-.4029-.3568-.6046-1.0747-.6046-2.1496V61.0794l-30.497,38.2891c-1.1653,1.524-2.0385,2.5318-2.6197,3.0228-.5836.4932-1.2322.7389-1.9482.7389-.7179,0-1.3665-.2457-1.9482-.7389-.5836-.4911-1.4568-1.4989-2.6197-3.0228l-30.497-38.2891v72.9508Z" style="fill:#d2e4a7;"/><path d="M645.3257,128.8581c-.2686.4932-.8058.9193-1.6121,1.2761-10.569,5.2857-21.8985,7.9267-33.9899,7.9267-8.3293,0-16.0546-1.9921-23.1752-5.9785-7.12-3.9842-12.8303-9.606-17.1289-16.8607-4.2993-7.2549-6.4492-15.5846-6.4492-24.9888,0-9.6732,2.1939-18.2252,6.5835-25.6606,4.3871-7.4332,10.2775-13.166,17.6667-17.1964,7.3892-4.0304,15.5168-6.0457,24.3839-6.0457,6.2685,0,12.2467,1.0307,17.9359,3.09,5.6861,2.0614,10.6339,4.6582,14.8453,7.7921.8943.6278,1.3436,1.2554,1.3436,1.881,0,.5372-.2692,1.165-.8064,1.8807l-2.2836,2.8214c-.5378.7179-1.1214,1.0747-1.7471,1.0747-.5372,0-1.2086-.2686-2.015-.8061-4.0307-2.775-8.3757-4.9918-13.0314-6.65-4.6582-1.6564-9.5392-2.4857-14.6442-2.4857-7.5235,0-14.2407,1.7025-20.1521,5.1053-5.9114,3.405-10.5467,8.1282-13.9053,14.1739-3.3586,6.0454-5.0382,12.9203-5.0382,20.6224,0,7.7921,1.7675,14.711,5.3068,20.7567,3.5374,6.0457,8.2396,10.7036,14.107,13.9721,5.865,3.2707,12.2022,4.9036,19.0103,4.9036,4.7461,0,9.0893-.3797,13.0314-1.1418,3.9403-.76,7.7921-1.9018,11.5542-3.4257.8058-.3571,1.32-.6928,1.5447-1.0078.2228-.3128.336-.7829.336-1.4107v-26.1978c0-1.0747.2017-1.7907.6046-2.1496.4029-.3568,1.0954-.5372,2.0825-.5372h3.3586c.9846,0,1.679.1804,2.0825.5372.4029.3589.6046,1.075.6046,2.1496v30.497c0,.8964-.1343,1.5911-.4035,2.0825Z" style="fill:#d2e4a7;"/><path d="M676.1575,136.1799c-.4029.3589-1.0979.5375-2.0825.5375h-3.3586c-.9865,0-1.6796-.1785-2.0825-.5375-.4029-.3568-.6046-1.0747-.6046-2.1496V45.3606c0-1.0747.2017-1.7904.6046-2.1493.4029-.3571,1.096-.5375,2.0825-.5375h23.2421c12.36,0,21.5631,2.3972,27.6088,7.1875,6.0457,4.7925,9.0682,11.7114,9.0682,20.7567,0,6.7175-1.7254,12.2049-5.1725,16.4578-3.4489,4.255-8.2179,7.2778-14.3075,9.0685l24.4513,36.677c.8058,1.165,1.2086,2.0614,1.2086,2.6868,0,.4493-.2475.7621-.7389.9407-.4932.1804-1.2322.2686-2.2168.2686h-3.3586c-1.3436,0-2.3511-.2014-3.0225-.6046-.6721-.4029-1.5014-1.3643-2.4854-2.8885l-26.1984-40.0356c-.4487-.7157-.6715-1.2974-.6715-1.7464,0-.3571.1114-.6046.336-.7389.2222-.1343.6486-.2457,1.2761-.336,6.8057-.5372,12.1124-2.3511,15.9203-5.4411,3.806-3.09,5.7096-7.8132,5.7096-14.1735,0-6.8057-2.4179-11.7556-7.2549-14.8456-4.8364-3.09-11.7782-4.635-20.8236-4.635h-15.1814c-.8967,0-1.3436.4493-1.3436,1.3436v81.4147c0,1.075-.2017,1.7929-.6046,2.1496Z" style="fill:#d2e4a7;"/><path d="M750.3829,65.4458c4.2083-7.4774,9.9854-13.3678,17.3307-17.6667,7.3428-4.2993,15.45-6.4489,24.317-6.4489s16.9049,2.1054,24.1153,6.3143c7.2085,4.2111,12.8978,9.9882,17.0621,17.331,4.165,7.345,6.2474,15.4964,6.2474,24.4513,0,9.0475-2.1054,17.2867-6.3143,24.7199-4.2114,7.4353-10.0089,13.2796-17.3981,17.5324-7.3892,4.2553-15.5632,6.3817-24.5188,6.3817-8.7786,0-16.7489-2.0825-23.9135-6.2471-7.1671-4.165-12.8303-9.8956-16.9953-17.1967-4.165-7.2989-6.2474-15.4271-6.2474-24.3842,0-9.0453,2.1035-17.3078,6.3149-24.7871ZM758.2418,110.1164c3.3586,6.0017,7.971,10.7268,13.8378,14.1739,5.865,3.4489,12.3371,5.1722,19.4132,5.1722s13.5692-1.7464,19.4806-5.2393c5.9114-3.4932,10.6135-8.2835,14.1064-14.3753,3.4935-6.0899,5.2399-12.8071,5.2399-20.1524,0-7.6114-1.7254-14.4424-5.1725-20.4878-3.4489-6.0457-8.1071-10.7689-13.9721-14.1739-5.8675-3.4028-12.3389-5.1053-19.4132-5.1053s-13.5692,1.7257-19.4806,5.1725c-5.9114,3.4489-10.5696,8.2182-13.9721,14.3081-3.405,6.0918-5.1056,12.9436-5.1056,20.5553,0,7.4353,1.6796,14.1525,5.0382,20.1521Z" style="fill:#d2e4a7;"/><path d="M923.6915,46.5698c.716-1.6121,1.3875-2.6639,2.015-3.1571.6257-.4914,1.6121-.7389,2.9557-.7389h2.4185c.8943,0,1.5657.1343,2.015.4029.4474.2689.6721.7179.6721,1.3436,0,.3589-.2246,1.0747-.6721,2.1496l-39.3641,85.1765c-.7179,1.6125-1.3665,2.9557-1.9476,4.0307-.5836,1.0747-1.0539,1.7675-1.411,2.0822-.3589.3128-.8058.4703-1.3436.4703-.4487,0-.8522-.1575-1.2086-.4703-.3589-.3147-.8293-1.0075-1.411-2.0822-.5836-1.075-1.2322-2.4182-1.9482-4.0307l-39.6327-85.1765c-.4487-1.075-.6715-1.7907-.6715-2.1496,0-.6257.2228-1.0747.6715-1.3436.4474-.2686,1.1189-.4029,2.0156-.4029h2.8214c1.3429,0,2.3275.2475,2.9557.7389.6251.4932,1.2971,1.545,2.015,3.1571l34.5271,75.5036,34.5277-75.5036Z" style="fill:#d2e4a7;"/><path d="M999.3954,128.6563c.4035.3593.6046,1.075.6046,2.1496v3.2243c0,1.075-.2011,1.7929-.6046,2.1496-.4029.3589-1.0979.5375-2.0819.5375h-48.2312c-.9865,0-1.6796-.1785-2.0825-.5375-.4029-.3568-.6046-1.0747-.6046-2.1496V45.3606c0-1.0747.2017-1.7904.6046-2.1493.4029-.3571,1.096-.5375,2.0825-.5375h48.0969c.984,0,1.679.1804,2.0819.5375.4035.3589.6046,1.0747.6046,2.1493v3.2246c0,1.0747-.2011,1.7925-.6046,2.1493-.4029.3589-1.0979.5375-2.0819.5375h-40.7077c-.8967,0-1.3436.4493-1.3436,1.3436v31.1688c0,.8961.4468,1.3432,1.3436,1.3432h36.1398c.984,0,1.679.1807,2.0819.5375.4035.3589.6046,1.075.6046,2.1496v3.09c0,1.0747-.2011,1.7929-.6046,2.1496-.4029.3589-1.0979.5375-2.0819.5375h-36.1398c-.8967,0-1.3436.449-1.3436,1.3432v31.8406c0,.8964.4468,1.3436,1.3436,1.3436h40.842c.984,0,1.679.1804,2.0819.5372Z" style="fill:#d2e4a7;"/><g id="_5ec5c8b7-d30f-4617-a70f-391b0c8d47dc_0"><rect x="84.278" y="123.1614" width="57.7596" height="107.2883" style="fill:#90ac84;"/><path d="M64.6382,30.2469c0,.2102-.1144.3859-.2606.5368-1.6857,1.7396-4.0548,2.8612-6.0764,4.171-2.3689,1.5347-4.7127,3.1083-7.03,4.7199-6.0763,4.2258-12.0389,8.5228-17.19,13.8424-.414.4278-1.1411.1042-1.1411-.4911V5.2028c0-.3739.3031-.677.677-.677h30.3442c.3739,0,.677.3031.677.677v25.0441Z" style="fill:#90ac84;"/><path d="M109.831.6405v35.4821c-.0673,13.7065-3.132,17.0952-8.862,23.6264-.0409.0467-.082.0934-.1231.1401-17.3151,19.6829-30.5795,23.4904-44.4527,37.8321-5.5136,5.6998-12.8631,14.862-18.8822,29.0514-.2581.6085-1.0205.8106-1.5402.4022-2.4784-1.9473-5.8654-4.5348-8.1355-6.7213-4.1707-4.0169-5.0686-6.2662-5.0686-6.2662-1.5987-11.191-1.5124-36.8484,12.8189-53.3524,13.3189-15.338,26.672-20.63,54.3629-41.5473,8.9524-6.7625,14.4824-12.5085,18.7048-18.9928.349-.5359,1.1778-.2938,1.1778.3457Z" style="fill:#d2e4a7;"/><path d="M77.4713,156.8733c.2321.1485.4158.0347.4316-.2404v-13.443c.0024-.2393-.3436-.3775-.5352-.2341-2.7147,2.0312-5.1307,4.3728-7.4184,7.3157-.636.8182-.5618.8708.4214,1.7417.8123.7194,5.7824,4.0166,7.1006,4.8602Z" style="fill:#d2e4a7;"/><path d="M.0003,101.3012c-.0044-.3278.4055-.4794.6127-.2255,3.1741,3.8893,17.9456,21.4965,33.4988,31.9393,17.3724,11.6643,38.8592,27.3829,43.2507,30.801.5833.454.528.3674.5404,1.1064v48.1685c.0053.3118-.0921.4733-.3119.2521-3.3543-3.3764-21.4301-19.9949-40.0949-32.1019C16.6452,167.7163,1.4245,149.9687.5532,142.3426c-.0016-.0144-.0025-.0283-.0027-.0427L.0003,101.3012Z" style="fill:#d2e4a7;"/><path d="M17.0784,229.7568c-7.9564-7.0248-14.0939-13.4806-16.4962-15.765-.2215-.2106-.5861-.0509-.582.2548l.2082,15.5624c.0044.3294.2727.5941.6021.5941h16.0258c.3401,0,.497-.4212.2421-.6463Z" style="fill:#d2e4a7;"/><path d="M.0003,156.3333c-.0051-.4196.5363-.5929.7711-.2451,2.6917,3.9879,12.6076,17.0928,34.8442,31.0452,23.8509,14.9653,41.51,33.9571,42.2598,34.8613.0192.0231.0224.0498.0232.0798v8.1909c.002.0754-.0199.1376-.0953.1376H26.7955c-.0291,0-.06.0024-.0833-.0149C11.4764,219.0214.7051,207.8493.0003,201.5776c-.0006-.0057,0-.0112,0-.0169v-45.2274Z" style="fill:#d2e4a7;"/><path d="M28.9557,57.6025c.359-.2529.8123.1676.5515.512-7.0805,9.3453-14.6569,20.01-14.0226,48.8198.0105.4787-.6547.6758-.9633.2967-2.9065-3.57-12.0883-14.9507-14.4993-27.8063-.0952-.5076.1293-1.0226.5659-1.3301l28.368-20.492Z" style="fill:#d2e4a7;"/><path d="M78.1745,116.7904h25.0721c.0778,0,.153-.0333.2053-.0908,5.5325-6.0832,6.8406-13.8356,6.8406-21.6496v-32.9199c0-.9332-1.1465-1.3787-1.7772-.6908-3.6229,3.9515-7.1975,8.1802-14.8849,14.6967-7.6432,6.479-16.1903,11.846-24.789,18.341-11.1113,8.3928-20.1918,22.2605-25.4565,36.2339-.4576,1.2147.3057,2.5711,1.3937,3.2789l18.0752,12.6907c.8635.6063,2.0369.4972,2.7795-.2524,4.6989-4.7432,8.4655-7.8917,12.1603-10.6261.069-.051.1092-.1313.1092-.2171v-18.5228c0-.15.1216-.2716.2716-.2716Z" style="fill:#d2e4a7;"/><path d="M209.2371,229.7568c7.9564-7.0248,14.0939-13.4806,16.4962-15.765.2215-.2106.5861-.0509.582.2548l-.2082,15.5624c-.0044.3294-.2727.5941-.6021.5941h-16.0258c-.3401,0-.497-.4212-.2421-.6463Z" style="fill:#d2e4a7;"/><path d="M116.4843.6405v35.4821c.0673,13.7065,3.132,17.0952,8.862,23.6264.0409.0467.082.0934.1231.1401,17.3151,19.6829,30.5795,23.4904,44.4527,37.8321,5.5136,5.6998,12.8631,14.862,18.8822,29.0514.2581.6085,1.0205.8106,1.5402.4022,2.4784-1.9473,5.8654-4.5348,8.1355-6.7213,4.1707-4.0169,5.0686-6.2662,5.0686-6.2662,1.5987-11.191,1.5124-36.8484-12.8189-53.3524-13.3189-15.338-26.672-20.63-54.3629-41.5473-8.9524-6.7625-14.4824-12.5085-18.7048-18.9928-.349-.5359-1.1778-.2938-1.1778.3457Z" style="fill:#d2e4a7;"/><path d="M148.844,156.8733c-.2321.1485-.4158.0347-.4316-.2404v-13.443c-.0024-.2393.3436-.3775.5352-.2341,2.7147,2.0312,5.1307,4.3728,7.4184,7.3157.636.8182.5618.8708-.4214,1.7417-.8123.7194-5.7824,4.0166-7.1006,4.8602Z" style="fill:#d2e4a7;"/><path d="M226.315,101.3012c.0044-.3278-.4055-.4794-.6127-.2255-3.1741,3.8893-17.9456,21.4965-33.4988,31.9393-17.3724,11.6643-38.8592,27.3829-43.2507,30.801-.5833.454-.528.3674-.5404,1.1064v48.1685c-.0053.3118.0921.4733.3119.2521,3.3543-3.3764,21.4301-19.9949,40.0949-32.1019,20.8509-13.5249,36.0715-31.2725,36.9428-38.8986.0016-.0144.0025-.0283.0027-.0427l.5503-40.9987Z" style="fill:#d2e4a7;"/><path d="M226.315,156.3333c.0051-.4196-.5363-.5929-.7711-.2451-2.6917,3.9879-12.6076,17.0928-34.8442,31.0452-23.8509,14.9653-41.51,33.9571-42.2598,34.8613-.0192.0231-.0224.0498-.0232.0798v8.1909c-.002.0754.0199.1376.0953.1376h51.0077c.0291,0,.06.0024.0833-.0149,15.2357-11.3667,26.0071-22.5388,26.7119-28.8105.0006-.0057,0-.0112,0-.0169v-45.2274Z" style="fill:#d2e4a7;"/><path d="M197.3596,57.6025c-.359-.2529-.8123.1676-.5515.512,7.0805,9.3453,14.6569,20.01,14.0226,48.8198-.0105.4787.6547.6758.9633.2967,2.9065-3.57,12.0883-14.9507,14.4993-27.8063.0952-.5076-.1293-1.0226-.5659-1.3301l-28.368-20.492Z" style="fill:#d2e4a7;"/><path d="M148.1408,116.7904h-25.0721c-.0778,0-.153-.0333-.2053-.0908-5.5325-6.0832-6.8406-13.8356-6.8406-21.6496v-32.9199c0-.9332,1.1465-1.3787,1.7772-.6908,3.6229,3.9515,7.1975,8.1802,14.8849,14.6967,7.6432,6.479,16.1903,11.846,24.789,18.341,11.1113,8.3928,20.1918,22.2605,25.4565,36.2339.4576,1.2147-.3057,2.5711-1.3937,3.2789l-18.0752,12.6907c-.8635.6063-2.0369.4972-2.7795-.2524-4.6989-4.7432-8.4655-7.8917-12.1603-10.6261-.069-.051-.1092-.1313-.1092-.2171v-18.5228c0-.15-.1216-.2716-.2716-.2716Z" style="fill:#d2e4a7;"/></g></g></g></svg>