<?xml version="1.0" standalone="no"?>
<!DOCTYPE svg PUBLIC "-//W3C//DTD SVG 1.1//EN" "http://www.w3.org/Graphics/SVG/1.1/DTD/svg11.dtd">
<svg xmlns="http://www.w3.org/2000/svg" id="Layer_2" viewBox="0 0 226.3153 230.4497" width="226.3153076171875" height="230.44970703125"><g id="Components"><g id="fe1b6e89-e9b3-457c-b0c9-ee15a0e3a88c_10"><rect x="84.278" y="123.1614" width="57.7596" height="107.2883" style="fill:#90ac84;"/><path d="M64.6382,30.2469c0,.2102-.1144.3859-.2606.5368-1.6857,1.7396-4.0548,2.8612-6.0764,4.171-2.3689,1.5347-4.7127,3.1083-7.03,4.7199-6.0763,4.2258-12.0389,8.5228-17.19,13.8424-.414.4278-1.1411.1042-1.1411-.4911V5.2028c0-.3739.3031-.677.677-.677h30.3442c.3739,0,.677.3031.677.677v25.0441Z" style="fill:#90ac84;"/><path d="M109.831.6405v35.4821c-.0673,13.7065-3.132,17.0952-8.862,23.6264-.0409.0467-.082.0934-.1231.1401-17.3151,19.6829-30.5795,23.4904-44.4527,37.8321-5.5136,5.6998-12.8631,14.862-18.8822,29.0514-.2581.6085-1.0205.8106-1.5402.4022-2.4784-1.9473-5.8654-4.5348-8.1355-6.7213-4.1707-4.0169-5.0686-6.2662-5.0686-6.2662-1.5987-11.191-1.5124-36.8484,12.8189-53.3524,13.3189-15.338,26.672-20.63,54.3629-41.5473,8.9524-6.7625,14.4824-12.5085,18.7048-18.9928.349-.5359,1.1778-.2938,1.1778.3457Z" style="fill:#d2e4a7;"/><path d="M77.4713,156.8733c.2321.1485.4158.0347.4316-.2404v-13.443c.0024-.2393-.3436-.3775-.5352-.2341-2.7147,2.0312-5.1307,4.3728-7.4184,7.3157-.636.8182-.5618.8708.4214,1.7417.8123.7194,5.7824,4.0166,7.1006,4.8602Z" style="fill:#d2e4a7;"/><path d="M.0003,101.3012c-.0044-.3278.4055-.4794.6127-.2255,3.1741,3.8893,17.9456,21.4965,33.4988,31.9393,17.3724,11.6643,38.8592,27.3829,43.2507,30.801.5833.454.528.3674.5404,1.1064v48.1685c.0053.3118-.0921.4733-.3119.2521-3.3543-3.3764-21.4301-19.9949-40.0949-32.1019C16.6452,167.7163,1.4245,149.9687.5532,142.3426c-.0016-.0144-.0025-.0283-.0027-.0427L.0003,101.3012Z" style="fill:#d2e4a7;"/><path d="M17.0784,229.7568c-7.9564-7.0248-14.0939-13.4806-16.4962-15.765-.2215-.2106-.5861-.0509-.582.2548l.2082,15.5624c.0044.3294.2727.5941.6021.5941h16.0258c.3401,0,.497-.4212.2421-.6463Z" style="fill:#d2e4a7;"/><path d="M.0003,156.3333c-.0051-.4196.5363-.5929.7711-.2451,2.6917,3.9879,12.6076,17.0928,34.8442,31.0452,23.8509,14.9653,41.51,33.9571,42.2598,34.8613.0192.0231.0224.0498.0232.0798v8.1909c.002.0754-.0199.1376-.0953.1376H26.7955c-.0291,0-.06.0024-.0833-.0149C11.4764,219.0214.7051,207.8493.0003,201.5776c-.0006-.0057,0-.0112,0-.0169v-45.2274Z" style="fill:#d2e4a7;"/><path d="M28.9557,57.6025c.359-.2529.8123.1676.5515.512-7.0805,9.3453-14.6569,20.01-14.0226,48.8198.0105.4787-.6547.6758-.9633.2967-2.9065-3.57-12.0883-14.9507-14.4993-27.8063-.0952-.5076.1293-1.0226.5659-1.3301l28.368-20.492Z" style="fill:#d2e4a7;"/><path d="M78.1745,116.7904h25.0721c.0778,0,.153-.0333.2053-.0908,5.5325-6.0832,6.8406-13.8356,6.8406-21.6496v-32.9199c0-.9332-1.1465-1.3787-1.7772-.6908-3.6229,3.9515-7.1975,8.1802-14.8849,14.6967-7.6432,6.479-16.1903,11.846-24.789,18.341-11.1113,8.3928-20.1918,22.2605-25.4565,36.2339-.4576,1.2147.3057,2.5711,1.3937,3.2789l18.0752,12.6907c.8635.6063,2.0369.4972,2.7795-.2524,4.6989-4.7432,8.4655-7.8917,12.1603-10.6261.069-.051.1092-.1313.1092-.2171v-18.5228c0-.15.1216-.2716.2716-.2716Z" style="fill:#d2e4a7;"/><path d="M209.2371,229.7568c7.9564-7.0248,14.0939-13.4806,16.4962-15.765.2215-.2106.5861-.0509.582.2548l-.2082,15.5624c-.0044.3294-.2727.5941-.6021.5941h-16.0258c-.3401,0-.497-.4212-.2421-.6463Z" style="fill:#d2e4a7;"/><path d="M116.4843.6405v35.4821c.0673,13.7065,3.132,17.0952,8.862,23.6264.0409.0467.082.0934.1231.1401,17.3151,19.6829,30.5795,23.4904,44.4527,37.8321,5.5136,5.6998,12.8631,14.862,18.8822,29.0514.2581.6085,1.0205.8106,1.5402.4022,2.4784-1.9473,5.8654-4.5348,8.1355-6.7213,4.1707-4.0169,5.0686-6.2662,5.0686-6.2662,1.5987-11.191,1.5124-36.8484-12.8189-53.3524-13.3189-15.338-26.672-20.63-54.3629-41.5473-8.9524-6.7625-14.4824-12.5085-18.7048-18.9928-.349-.5359-1.1778-.2938-1.1778.3457Z" style="fill:#d2e4a7;"/><path d="M148.844,156.8733c-.2321.1485-.4158.0347-.4316-.2404v-13.443c-.0024-.2393.3436-.3775.5352-.2341,2.7147,2.0312,5.1307,4.3728,7.4184,7.3157.636.8182.5618.8708-.4214,1.7417-.8123.7194-5.7824,4.0166-7.1006,4.8602Z" style="fill:#d2e4a7;"/><path d="M226.315,101.3012c.0044-.3278-.4055-.4794-.6127-.2255-3.1741,3.8893-17.9456,21.4965-33.4988,31.9393-17.3724,11.6643-38.8592,27.3829-43.2507,30.801-.5833.454-.528.3674-.5404,1.1064v48.1685c-.0053.3118.0921.4733.3119.2521,3.3543-3.3764,21.4301-19.9949,40.0949-32.1019,20.8509-13.5249,36.0715-31.2725,36.9428-38.8986.0016-.0144.0025-.0283.0027-.0427l.5503-40.9987Z" style="fill:#d2e4a7;"/><path d="M226.315,156.3333c.0051-.4196-.5363-.5929-.7711-.2451-2.6917,3.9879-12.6076,17.0928-34.8442,31.0452-23.8509,14.9653-41.51,33.9571-42.2598,34.8613-.0192.0231-.0224.0498-.0232.0798v8.1909c-.002.0754.0199.1376.0953.1376h51.0077c.0291,0,.06.0024.0833-.0149,15.2357-11.3667,26.0071-22.5388,26.7119-28.8105.0006-.0057,0-.0112,0-.0169v-45.2274Z" style="fill:#d2e4a7;"/><path d="M197.3596,57.6025c-.359-.2529-.8123.1676-.5515.512,7.0805,9.3453,14.6569,20.01,14.0226,48.8198-.0105.4787.6547.6758.9633.2967,2.9065-3.57,12.0883-14.9507,14.4993-27.8063.0952-.5076-.1293-1.0226-.5659-1.3301l-28.368-20.492Z" style="fill:#d2e4a7;"/><path d="M148.1408,116.7904h-25.0721c-.0778,0-.153-.0333-.2053-.0908-5.5325-6.0832-6.8406-13.8356-6.8406-21.6496v-32.9199c0-.9332,1.1465-1.3787,1.7772-.6908,3.6229,3.9515,7.1975,8.1802,14.8849,14.6967,7.6432,6.479,16.1903,11.846,24.789,18.341,11.1113,8.3928,20.1918,22.2605,25.4565,36.2339.4576,1.2147-.3057,2.5711-1.3937,3.2789l-18.0752,12.6907c-.8635.6063-2.0369.4972-2.7795-.2524-4.6989-4.7432-8.4655-7.8917-12.1603-10.6261-.069-.051-.1092-.1313-.1092-.2171v-18.5228c0-.15-.1216-.2716-.2716-.2716Z" style="fill:#d2e4a7;"/></g></g></svg>